<?xml version="1.0" ?><svg enable-background="new 0 0 204 222.0025" id="finder" version="1.1" viewBox="0 0 204 222.0025" xml:space="preserve" xmlns="http://www.w3.org/2000/svg" xmlns:xlink="http://www.w3.org/1999/xlink"><g><path d="M200,24.0025h-76.1577c7.3708-10.7448,12.9864-17.1608,13.148-17.3436c1.4668-1.6524,1.3164-4.18-0.334-5.6448   c-1.6523-1.4724-4.18-1.324-5.6468,0.332c-0.7624,0.8572-8.0788,9.2008-16.9436,22.6564H4c-2.2089,0-4,1.7892-4,4v164   c0,2.2108,1.7911,4,4,4h112.8211c2.3096,7.7656,5.4296,15.7668,9.63,23.8436c0.7129,1.3712,2.1072,2.1564,3.5529,2.1564   c0.6211,0,1.252-0.1444,1.8415-0.4492c1.9592-1.0196,2.7228-3.4376,1.7032-5.3944c-3.5296-6.7876-6.2324-13.546-8.3116-20.1564H200   c2.2087,0,4-1.7892,4-4v-164C204,25.7917,202.2087,24.0025,200,24.0025z M8,188.0025v-156h101.0115   c-13.306,21.93-27.9012,53.5128-29.0096,87.8712c-0.0352,1.082,0.3712,2.1328,1.1248,2.91   c0.752,0.7812,1.7893,1.2188,2.8733,1.2188h30.7911c-1.3732,5.61-3.2268,15.374-3.6156,27.6828   c-3.666,0.2044-7.3972,0.3172-11.1755,0.3172c-28.0469,0-53.9297-5.8632-65.9397-14.9336   c-1.7656-1.336-4.2692-0.9844-5.6016,0.7812c-1.332,1.7616-0.9824,4.2696,0.7816,5.6016   C42.7539,153.6625,69.8671,160.0025,100,160.0025c3.7727,0,7.4947-0.1004,11.1475-0.2928   c0.2076,8.624,1.2188,18.178,3.5668,28.2928H8z M196,188.0025h-72.9973c-2.522-10.3356-3.5627-20.1408-3.7432-28.902   c22.4205-2.1016,41.4456-7.818,51.926-15.9732c1.742-1.3552,2.0564-3.8668,0.6992-5.6132   c-1.3556-1.742-3.8712-2.0624-5.6132-0.6992c-9.0928,7.0756-26.522,12.218-46.9564,14.2372   c0.654-17.7392,4.4572-29.5512,4.5344-29.784c0.4044-1.2188,0.1992-2.5624-0.5528-3.6056c-0.752-1.0388-1.9567-1.66-3.242-1.66   H88.2011c2.1876-32.9928,17.4808-63.6036,30.3724-84H196V188.0025z"/><rect height="28.3944" width="8" x="136" y="56.0025"/><rect height="28.3944" width="8" x="52" y="56.0025"/></g></svg>