<?xml version="1.0" encoding="utf-8"?>
<!-- Generator: Adobe Illustrator 23.1.0, SVG Export Plug-In . SVG Version: 6.00 Build 0)  -->
<svg version="1.1" id="Слой_1" xmlns="http://www.w3.org/2000/svg" xmlns:xlink="http://www.w3.org/1999/xlink" x="0px" y="0px"
	 viewBox="0 0 490 491" style="enable-background:new 0 0 490 491;" xml:space="preserve">
<style type="text/css">
	.st0{fill:#3F456B;}
</style>
<g id="Lines">
	<path class="st0" d="M475,443H15c-8.3,0-15-6.7-15-15V63c0-8.3,6.7-15,15-15l0,0h460c8.3,0,15,6.7,15,15l0,0v365
		C490,436.3,483.3,443,475,443z M15,58c-2.8,0-5,2.2-5,5v365c0,2.8,2.2,5,5,5h460c2.8,0,5-2.2,5-5V63c0-2.8-2.2-5-5-5H15z"/>
	<path class="st0" d="M310,491c-1.8,0-3.5-1-4.4-2.5c-29.5-52.2-33.8-112.7-32.1-154.3c0.9-24.3,4-48.4,9.1-72.2H205
		c-2.8,0-5-2.2-5-5c0-0.2,0-0.4,0-0.6c8.9-79.9,37.2-144.8,59.5-185.2c24.1-43.9,45.9-68.5,46.8-69.5c1.8-2.1,5-2.3,7.1-0.4
		s2.3,5,0.4,7.1c-0.2,0.3-22,25-45.6,68C246.9,115,220,176.5,210.6,252H289c2.8,0,5,2.2,5,5c0,0.4-0.1,0.9-0.2,1.3
		c-0.1,0.3-8.7,32.7-10.3,76.5c-1.5,40.2,2.5,98.7,30.9,148.7c1.4,2.4,0.5,5.5-1.9,6.8C311.7,490.8,310.9,491,310,491z"/>
	<path class="st0" d="M248,358c-94.3,0-159.8-38.1-162.5-39.7c-2.3-1.5-3.1-4.5-1.6-6.9c1.4-2.3,4.3-3,6.7-1.7l0,0
		c0.7,0.4,66,38.3,157.5,38.3c91.6,0,159.9-38,160.5-38.4c2.4-1.4,5.4-0.7,6.9,1.7c1.4,2.4,0.7,5.4-1.7,6.9
		c-0.1,0.1-0.2,0.1-0.3,0.2C410.6,320,342.2,358,248,358z"/>
	<path class="st0" d="M130,176c-2.8,0-5-2.2-5-5v-44c0-2.8,2.2-5,5-5s5,2.2,5,5v44C135,173.8,132.8,176,130,176z"/>
	<path class="st0" d="M344,176c-2.8,0-5-2.2-5-5v-44c0-2.8,2.2-5,5-5s5,2.2,5,5v44C349,173.8,346.8,176,344,176z"/>
</g>
</svg>
